<?xml version="1.0" standalone="no"?>
<!DOCTYPE svg PUBLIC "-//W3C//DTD SVG 20010904//EN"
 "http://www.w3.org/TR/2001/REC-SVG-20010904/DTD/svg10.dtd">
<svg version="1.0" xmlns="http://www.w3.org/2000/svg"
 width="550.000000pt" height="550.000000pt" viewBox="0 0 550.000000 550.000000"
 preserveAspectRatio="xMidYMid meet">
<metadata>
Created by potrace 1.16, written by Peter Selinger 2001-2019
</metadata>
<g transform="translate(0.000000,550.000000) scale(0.100000,-0.100000)"
fill="#000000" stroke="none">
<path d="M1946 4981 c-35 -78 -71 -185 -96 -283 -29 -112 -28 -115 27 -77 58
40 133 69 179 69 25 0 35 4 31 13 -2 7 -26 78 -52 157 -26 80 -51 153 -54 164
-6 15 -13 5 -35 -43z"/>
<path d="M3570 5023 c0 -10 -24 -88 -53 -174 l-53 -157 52 -5 c54 -6 117 -32
172 -74 18 -14 36 -23 39 -20 14 14 -80 314 -127 407 -22 44 -30 49 -30 23z"/>
<path d="M1990 4525 c-242 -68 -372 -345 -331 -702 39 -334 202 -629 398 -721
50 -23 71 -27 153 -27 87 0 100 3 148 30 104 57 182 173 222 328 32 126 44
301 31 444 -32 332 -142 545 -327 630 -73 34 -207 42 -294 18z"/>
<path d="M3350 4514 c-185 -67 -318 -262 -397 -584 -34 -135 -39 -365 -10
-470 43 -154 133 -281 234 -331 40 -20 63 -24 144 -24 90 0 99 2 175 39 116
57 217 162 278 288 26 52 58 139 73 194 25 91 27 114 27 289 0 163 -3 201 -22
267 -45 164 -119 265 -229 315 -74 34 -203 42 -273 17z"/>
<path d="M1032 3820 c-22 -47 -52 -121 -66 -165 -24 -76 -66 -240 -66 -259 0
-5 18 11 39 35 45 52 126 96 192 105 l47 6 -23 52 c-35 81 -56 152 -69 234
l-12 77 -42 -85z"/>
<path d="M4470 3853 c0 -56 -29 -168 -65 -249 -14 -31 -25 -58 -25 -59 0 -2
19 -6 43 -9 64 -10 141 -49 188 -98 l42 -43 -8 50 c-18 122 -129 428 -164 449
-8 5 -11 -8 -11 -41z"/>
<path d="M1122 3399 c-159 -63 -262 -273 -262 -533 0 -356 144 -659 365 -767
67 -33 74 -34 185 -34 110 0 118 1 182 33 107 53 174 144 216 294 24 89 24
344 -1 446 -43 179 -103 288 -222 408 -109 109 -214 164 -331 170 -64 3 -89 0
-132 -17z"/>
<path d="M4209 3382 c-213 -71 -383 -281 -455 -562 -83 -320 2 -600 211 -696
155 -71 355 -14 516 146 119 119 192 248 240 426 33 120 31 302 -3 406 -45
137 -111 218 -217 266 -74 34 -211 41 -292 14z"/>
<path d="M2770 3033 c-196 -19 -349 -92 -477 -226 -87 -92 -152 -196 -213
-342 -89 -214 -110 -244 -336 -476 -195 -201 -277 -309 -349 -454 -113 -228
-122 -410 -32 -600 121 -251 337 -379 611 -360 117 8 208 26 469 91 448 113
491 111 998 -40 204 -61 350 -69 473 -26 116 39 201 121 266 254 62 126 75
188 75 356 0 124 -3 156 -24 220 -65 207 -127 298 -367 535 -113 112 -208 215
-231 252 -22 33 -66 130 -98 215 -124 329 -201 430 -403 532 -93 47 -261 79
-362 69z"/>
</g>
</svg>
